<svg width="55" height="55" viewBox="0 0 55 55" fill="none" xmlns="http://www.w3.org/2000/svg">
<path d="M36.5201 51.8201C37.7901 51.3401 38.4101 49.8901 37.8801 48.6401C36.9201 46.3501 35.9301 42.6101 38.3001 40.2901C41.9001 36.7701 50.8701 14.5001 27.0101 10.8201C12.1801 10.5501 10.1301 24.2001 9.89007 29.3201C9.83007 30.6101 9.36007 31.8401 8.57007 32.8601C7.35007 34.4401 5.73007 36.6901 5.88007 37.3501C6.10007 38.3101 8.98007 39.2301 9.48007 45.0001C9.68007 47.3301 11.3201 49.3301 13.6101 49.8101C15.2601 50.1501 16.6001 49.6601 16.6001 49.6601C16.6001 49.6601 21.2501 49.1001 21.6501 52.7001C21.9701 55.6101 31.7701 53.6201 36.5201 51.8201Z" fill="#0EAAC0"/>
<path d="M48.9701 44.4701L46.7101 39.8701L43.8701 44.1301L48.9701 44.4701L46.7101 39.8701L43.8701 44.1301L48.9701 44.4701Z" fill="#0EAAC0"/>
<path d="M49.78 45.0001L43 44.5501L46.78 38.9001L49.78 45.0001ZM44.73 43.7001L48.17 43.9301L46.65 40.8401L44.73 43.7001Z" fill="#0EAAC0"/>
<path d="M53.6802 28.1502L49.1802 25.7102L49.3202 30.8302L53.6802 28.1502L49.1802 25.7102L49.3202 30.8302L53.6802 28.1502Z" fill="#0EAAC0"/>
<path d="M48.8602 31.6801L48.6702 24.8901L54.6502 28.1201L48.8602 31.6801ZM49.6802 26.5401L49.7802 29.9801L52.7102 28.1701L49.6802 26.5401Z" fill="#0EAAC0"/>
<path d="M47.8208 12.1144L42.7573 12.8657L45.944 16.8756L47.8208 12.1144L42.7573 12.8657L45.944 16.8756L47.8208 12.1144Z" fill="#0EAAC0"/>
<path d="M46.0867 17.8316L41.8572 12.5164L48.5785 11.5079L46.0867 17.8316ZM43.6557 13.2292L45.8014 15.9198L47.0573 12.7129L43.6557 13.2292Z" fill="#0EAAC0"/>
<path d="M33.8275 2.30097L30.3059 6.01611L35.2877 7.20604L33.8275 2.30097L30.3059 6.01611L35.2877 7.20604L33.8275 2.30097Z" fill="#0EAAC0"/>
<path d="M35.9896 7.87024L29.3818 6.29639L34.0495 1.35613L35.9896 7.87024ZM31.237 5.74785L34.5857 6.5416L33.5957 3.24297L31.237 5.74785Z" fill="#0EAAC0"/>
<path d="M16.2706 2.89994L15.4216 7.948L20.2196 6.15529L16.2706 2.89994L15.4216 7.948L20.2196 6.15529L16.2706 2.89994Z" fill="#0EAAC0"/>
<path d="M21.1728 6.31475L14.8113 8.69629L15.9276 1.99202L21.1728 6.31475ZM16.0446 7.20582L19.2663 5.99573L16.604 3.81098L16.0446 7.20582Z" fill="#0EAAC0"/>
<path d="M2.68835 13.4338L4.92285 18.0393L7.79324 13.7973L2.68835 13.4338L4.92285 18.0393L7.79324 13.7973L2.68835 13.4338Z" fill="#0EAAC0"/>
<path d="M8.66248 13.3747L4.85938 19.0029L1.88269 12.8929L8.66248 13.3747ZM5.00035 17.0735L6.92407 14.2199L3.48825 13.983L5.00035 17.0735Z" fill="#0EAAC0"/>
</svg>
