<svg width="30" height="28" viewBox="0 0 30 28" fill="none" xmlns="http://www.w3.org/2000/svg">
<path d="M6.62202 18.1012L7.8616 15.8612C7.8616 15.8611 7.86161 15.8611 7.86161 15.8611C8.39338 14.9002 8.42957 13.742 7.95885 12.7498L3.84447 4.0769C3.46665 3.28046 2.66388 2.77286 1.78235 2.77286H1.45481C0.927405 2.77286 0.5 2.3454 0.5 1.81832C0.5 1.29123 0.927405 0.86377 1.45481 0.86377H2.91536C3.84686 0.86377 4.69488 1.40053 5.09334 2.24222L5.09335 2.24223L5.34151 2.76639L5.49185 3.08394L5.84156 3.05012C5.87244 3.04713 5.9038 3.04559 5.93559 3.04559H27.7578C28.2852 3.04559 28.7126 3.47304 28.7126 4.00013C28.7126 4.26102 28.6085 4.49672 28.4385 4.6696L28.2629 4.84814L28.3007 5.0957C28.331 5.29451 28.2987 5.50375 28.1939 5.69406C28.1939 5.69407 28.1939 5.69409 28.1939 5.6941L23.2755 14.6244L23.275 14.6251C22.8667 15.3696 22.073 15.8638 21.1675 15.8638H11.1894C10.4766 15.8638 9.82017 16.2517 9.47657 16.8764C8.7599 18.1791 9.70269 19.7729 11.1894 19.7729H24.7318C25.2592 19.7729 25.6866 20.2003 25.6866 20.7274C25.6866 21.2545 25.2592 21.682 24.7318 21.682H23.2915H8.74337H8.72889C6.90202 21.682 5.73999 19.7221 6.62131 18.1025C6.62155 18.102 6.62178 18.1016 6.62202 18.1012ZM8.74337 22.682C10.0743 22.682 11.153 23.7606 11.153 25.091C11.153 26.4215 10.0743 27.5001 8.74337 27.5001C7.41247 27.5001 6.33373 26.4215 6.33373 25.091C6.33373 23.7606 7.41247 22.682 8.74337 22.682ZM20.8819 25.091C20.8819 23.7606 21.9606 22.682 23.2915 22.682C24.6225 22.682 25.7012 23.7606 25.7012 25.091C25.7012 26.4215 24.6225 27.5001 23.2915 27.5001C21.9606 27.5001 20.8819 26.4215 20.8819 25.091Z" stroke="black"/>
</svg>
