<svg width="465" height="155" viewBox="0 0 465 155" fill="none" xmlns="http://www.w3.org/2000/svg">
<path d="M117.491 122.656H121.337C124.067 122.656 125.804 123.651 125.804 126.264C125.804 128.752 124.067 129.996 121.337 129.996H118.36V136.34H117.367V122.656H117.491ZM121.089 129.249C123.446 129.249 124.811 128.254 124.811 126.264C124.811 124.149 123.446 123.403 121.089 123.403H118.36V129.249H121.089ZM121.089 129.747L121.958 129.498L126.052 136.34H124.935L121.089 129.747Z" fill="#A3A3A3"/>
<path d="M130.642 122.656H138.086V123.527H131.51V128.752H136.969V129.623H131.51V135.718H138.21V136.589H130.518V122.656H130.642Z" fill="#A3A3A3"/>
<path d="M143.174 122.656H144.166L149.873 132.359L151.362 135.096H151.486C151.486 133.728 151.362 132.484 151.362 131.115V122.781H152.231V136.464H151.238L145.531 126.761L144.042 124.025H143.918C143.918 125.393 144.042 126.637 144.042 127.881V136.34H143.174V122.656Z" fill="#A3A3A3"/>
<path d="M158.185 122.656H165.629V123.527H159.053V128.752H164.512V129.623H159.053V135.718H165.753V136.589H158.061V122.656H158.185Z" fill="#A3A3A3"/>
<path d="M169.227 122.656H170.219L171.956 130.742C172.328 132.235 172.576 133.728 172.949 135.22H173.073C173.445 133.728 173.817 132.235 174.065 130.742L176.174 122.656H177.167L179.276 130.742C179.648 132.235 180.02 133.728 180.393 135.22H180.517C180.889 133.728 181.137 132.235 181.385 130.742L183.122 122.656H184.115L181.013 136.34H179.896L177.415 126.886C177.167 125.766 176.919 124.895 176.671 123.776H176.546C176.298 124.895 176.05 125.766 175.802 126.886L173.321 136.34H172.328L169.227 122.656Z" fill="#A3A3A3"/>
<path d="M191.435 122.656H192.428L197.266 136.34H196.274L193.544 128.254C193.048 126.637 192.552 125.144 192.056 123.527H191.931C191.435 125.144 190.939 126.637 190.443 128.254L187.713 136.34H186.721L191.435 122.656ZM188.83 130.867H194.909V131.613H188.83V130.867Z" fill="#A3A3A3"/>
<path d="M201.236 122.656H204.958C207.688 122.656 209.425 123.651 209.425 126.015C209.425 127.383 208.68 128.627 207.316 129.001V129.125C209.053 129.374 210.293 130.493 210.293 132.484C210.293 135.096 208.308 136.464 205.206 136.464H201.236V122.656ZM204.586 128.752C207.44 128.752 208.556 127.757 208.556 126.139C208.556 124.273 207.192 123.527 204.71 123.527H202.229V128.752H204.586ZM204.958 135.594C207.688 135.594 209.301 134.598 209.301 132.359C209.301 130.369 207.688 129.498 204.958 129.498H202.229V135.594H204.958Z" fill="#A3A3A3"/>
<path d="M215.131 122.656H216.123V135.594H222.451V136.464H215.255V122.656H215.131Z" fill="#A3A3A3"/>
<path d="M226.669 122.656H234.113V123.527H227.537V128.752H232.996V129.623H227.537V135.718H234.237V136.589H226.545V122.656H226.669Z" fill="#A3A3A3"/>
<path d="M245.155 122.656H252.599V123.527H246.024V128.752H251.483V129.623H246.024V135.718H252.723V136.589H245.031V122.656H245.155Z" fill="#A3A3A3"/>
<path d="M257.811 122.656H258.803L264.51 132.359L265.999 135.096H266.123C266.123 133.728 265.999 132.484 265.999 131.115V122.781H266.867V136.464H265.875L260.168 126.761L258.679 124.025H258.555C258.555 125.393 258.679 126.637 258.679 127.881V136.34H257.811V122.656Z" fill="#A3A3A3"/>
<path d="M272.821 122.656H280.265V123.527H273.69V128.752H279.149V129.623H273.69V135.718H280.389V136.589H272.697V122.656H272.821Z" fill="#A3A3A3"/>
<path d="M285.354 122.656H289.2C291.929 122.656 293.666 123.651 293.666 126.264C293.666 128.752 291.929 129.996 289.2 129.996H286.222V136.34H285.354V122.656ZM288.951 129.249C291.309 129.249 292.673 128.254 292.673 126.264C292.673 124.149 291.309 123.403 288.951 123.403H286.222V129.249H288.951ZM289.076 129.747L289.944 129.498L294.038 136.34H292.922L289.076 129.747Z" fill="#A3A3A3"/>
<path d="M297.635 129.498C297.635 125.144 300.116 122.407 303.714 122.407C305.575 122.407 306.692 123.278 307.436 124.024L306.816 124.646C306.071 123.9 305.203 123.278 303.714 123.278C300.612 123.278 298.627 125.642 298.627 129.498C298.627 133.354 300.488 135.718 303.59 135.718C304.831 135.718 305.947 135.345 306.692 134.723V130.493H303.466V129.622H307.684V135.096C306.816 135.967 305.451 136.589 303.59 136.589C299.992 136.589 297.635 133.852 297.635 129.498Z" fill="#A3A3A3"/>
<path d="M315.004 130.866L310.91 122.78H311.903L314.012 127.01C314.508 128.005 314.88 129 315.501 129.995H315.625C316.121 129 316.617 128.005 317.113 127.01L319.223 122.78H320.215L316.121 130.866V136.464H315.128V130.866H315.004Z" fill="#A3A3A3"/>
<path d="M330.016 122.656H331.008V136.34H330.016V122.656Z" fill="#A3A3A3"/>
<path d="M336.84 122.656H337.832L343.539 132.359L345.028 135.096H345.152C345.152 133.728 345.028 132.484 345.028 131.115V122.781H345.897V136.464H344.904L339.197 126.761L337.708 124.025H337.584C337.584 125.393 337.708 126.637 337.708 127.881V136.34H336.84V122.656Z" fill="#A3A3A3"/>
<path d="M351.852 122.656H352.844L358.551 132.359L360.04 135.096H360.164C360.164 133.728 360.04 132.484 360.04 131.115V122.781H360.908V136.464H359.916L354.209 126.761L352.72 124.025H352.596C352.596 125.393 352.72 126.637 352.72 127.881V136.34H351.852V122.656Z" fill="#A3A3A3"/>
<path d="M365.996 129.498C365.996 125.144 368.353 122.407 371.579 122.407C374.805 122.407 377.162 125.144 377.162 129.498C377.162 133.852 374.805 136.589 371.579 136.589C368.353 136.589 365.996 133.852 365.996 129.498ZM376.294 129.498C376.294 125.642 374.433 123.278 371.703 123.278C368.974 123.278 367.113 125.642 367.113 129.498C367.113 133.354 368.974 135.718 371.703 135.718C374.433 135.718 376.294 133.23 376.294 129.498Z" fill="#A3A3A3"/>
<path d="M380.387 122.656H381.379L383.861 130.618C384.357 132.235 384.729 133.603 385.349 135.22H385.473C386.094 133.603 386.342 132.359 386.962 130.618L389.444 122.656H390.436L385.97 136.34H384.977L380.387 122.656Z" fill="#A3A3A3"/>
<path d="M397.261 122.656H398.254L403.092 136.34H402.1L399.371 128.254C398.874 126.637 398.378 125.144 397.882 123.527H397.758C397.261 125.144 396.765 126.637 396.269 128.254L393.539 136.34H392.547L397.261 122.656ZM394.656 130.867H400.735V131.613H394.656V130.867Z" fill="#A3A3A3"/>
<path d="M410.04 123.527H405.697V122.656H415.374V123.527H411.032V136.34H410.04V123.527Z" fill="#A3A3A3"/>
<path d="M418.973 129.498C418.973 125.144 421.33 122.407 424.556 122.407C427.781 122.407 430.139 125.144 430.139 129.498C430.139 133.852 427.781 136.589 424.556 136.589C421.33 136.589 418.973 133.852 418.973 129.498ZM429.146 129.498C429.146 125.642 427.285 123.278 424.556 123.278C421.826 123.278 419.965 125.642 419.965 129.498C419.965 133.354 421.826 135.718 424.556 135.718C427.285 135.718 429.146 133.23 429.146 129.498Z" fill="#A3A3A3"/>
<path d="M435.226 122.656H439.072C441.801 122.656 443.538 123.651 443.538 126.264C443.538 128.752 441.801 129.996 439.072 129.996H436.094V136.34H435.102V122.656H435.226ZM438.824 129.249C441.181 129.249 442.546 128.254 442.546 126.264C442.546 124.149 441.181 123.403 438.824 123.403H436.094V129.249H438.824ZM438.824 129.747L439.692 129.498L443.786 136.34H442.67L438.824 129.747Z" fill="#A3A3A3"/>
<path d="M117.738 56.9736H131.013C149.251 56.9736 157.439 68.7915 157.439 86.3316C157.439 103.872 149.251 116.063 131.013 116.063H117.738V56.9736ZM130.517 113.575C147.266 113.575 154.338 101.881 154.338 86.3316C154.338 70.7818 147.39 59.4616 130.517 59.4616H120.468V113.575H130.517Z" fill="#676767"/>
<path d="M193.294 56.9736H195.776L216.867 116.187H213.889L201.607 80.7337C199.125 73.5186 197.016 67.4231 194.783 60.0836H194.411C192.302 67.4231 190.069 73.5186 187.587 80.7337L175.057 116.187H172.203L193.294 56.9736ZM181.384 92.4271H207.562V94.9151H181.384V92.4271Z" fill="#676767"/>
<path d="M235.725 56.9736H251.977C263.639 56.9736 270.959 61.3276 270.959 72.1502C270.959 82.5996 263.639 88.0732 251.977 88.0732H238.578V116.063H235.725V56.9736ZM250.861 85.5852C261.778 85.5852 267.858 81.2313 267.858 72.1502C267.858 62.8203 261.778 59.4616 250.861 59.4616H238.578V85.5852H250.861ZM251.233 87.2024L254.459 87.078L271.828 116.063H268.478L251.233 87.2024Z" fill="#676767"/>
<path d="M286.096 56.9736H289.197L297.014 92.8003C298.502 99.269 299.867 105.738 301.356 112.206H301.728C303.217 105.738 304.83 99.269 306.318 92.8003L315.996 56.9736H319.221L328.899 92.8003C330.511 99.269 332.124 105.738 333.737 112.206H334.109C335.598 105.738 336.839 99.269 338.203 92.8003L346.02 56.9736H348.873L335.226 116.187H332.372L320.958 73.643C319.842 69.0402 318.849 65.0595 317.733 60.3324H317.36C316.244 64.9351 315.003 68.9158 314.011 73.643L302.721 116.063H299.867L286.096 56.9736Z" fill="#676767"/>
<path d="M369.592 56.9736H372.445V116.187H369.592V56.9736Z" fill="#676767"/>
<path d="M399.244 56.9736H402.346L428.4 100.389L435.223 112.082H435.596C435.471 106.36 435.223 101.011 435.223 95.4126V56.9736H437.953V116.187H434.851L408.797 72.7722L401.974 61.0788H401.601C401.725 66.6767 401.974 71.6526 401.974 77.2505V116.187H399.244V56.9736Z" fill="#676767"/>
<path d="M19.9025 29.5742V19.0812H22.5257C24.1466 19.0812 25.3782 19.5344 26.2207 20.4408C27.0631 21.3366 27.4843 22.6162 27.4843 24.2797C27.4843 25.9539 27.0631 27.2549 26.2207 28.1826C25.3889 29.1104 24.1786 29.5742 22.5897 29.5742H19.9025ZM21.2301 28.4865H22.4298C23.6561 28.4865 24.5731 28.1186 25.181 27.3828C25.7994 26.6364 26.1087 25.602 26.1087 24.2797C26.1087 22.9575 25.7994 21.9444 25.181 21.2406C24.5731 20.5262 23.6561 20.1689 22.4298 20.1689H21.2301V28.4865ZM32.7665 29.7662C32.0734 29.7662 31.4442 29.6062 30.8791 29.2863C30.3139 28.9557 29.866 28.4865 29.5355 27.8787C29.2049 27.2709 29.0396 26.5458 29.0396 25.7033C29.0396 24.8502 29.2049 24.1198 29.5355 23.512C29.8767 22.9041 30.3139 22.4349 30.8471 22.1044C31.3803 21.7738 31.9401 21.6085 32.5266 21.6085C33.5183 21.6085 34.2808 21.9391 34.8139 22.6002C35.3578 23.2614 35.6297 24.1464 35.6297 25.2555C35.6297 25.3941 35.6244 25.5327 35.6137 25.6713C35.6137 25.7993 35.603 25.9113 35.5817 26.0072H30.3352C30.3885 26.8283 30.6445 27.4842 31.103 27.9747C31.5722 28.4652 32.18 28.7105 32.9265 28.7105C33.2997 28.7105 33.6409 28.6571 33.9502 28.5505C34.2701 28.4332 34.574 28.2839 34.8619 28.1026L35.3258 28.9664C34.9952 29.1797 34.6167 29.3663 34.1901 29.5262C33.7742 29.6862 33.2997 29.7662 32.7665 29.7662ZM30.3192 25.0635H34.478C34.478 24.2744 34.3074 23.6772 33.9662 23.272C33.6356 22.8562 33.1664 22.6482 32.5586 22.6482C32.0147 22.6482 31.5242 22.8615 31.087 23.288C30.6605 23.7039 30.4045 24.2957 30.3192 25.0635ZM39.5821 29.7662C39.0276 29.7662 38.4997 29.6649 37.9985 29.4623C37.4973 29.249 37.0601 28.9931 36.6869 28.6945L37.3427 27.8147C37.6839 28.0813 38.0358 28.3053 38.3984 28.4865C38.761 28.6571 39.1715 28.7425 39.6301 28.7425C40.1419 28.7425 40.5258 28.6252 40.7817 28.3906C41.0376 28.1453 41.1656 27.8574 41.1656 27.5268C41.1656 27.2602 41.075 27.0363 40.8937 26.855C40.7231 26.6737 40.4991 26.5244 40.2219 26.4071C39.9553 26.2792 39.678 26.1619 39.3901 26.0552C39.0276 25.9166 38.6703 25.762 38.3184 25.5914C37.9665 25.4101 37.6786 25.1808 37.4547 24.9036C37.2307 24.6156 37.1188 24.2531 37.1188 23.8159C37.1188 23.1867 37.3534 22.6642 37.8226 22.2483C38.3024 21.8218 38.9636 21.6085 39.806 21.6085C40.2859 21.6085 40.7337 21.6938 41.1496 21.8644C41.5655 22.0351 41.9227 22.243 42.2213 22.4883L41.5815 23.32C41.3149 23.1174 41.0376 22.9521 40.7497 22.8242C40.4618 22.6962 40.1472 22.6322 39.806 22.6322C39.3155 22.6322 38.9529 22.7442 38.7183 22.9681C38.4944 23.1921 38.3824 23.4533 38.3824 23.7519C38.3824 23.9972 38.4624 24.1998 38.6223 24.3597C38.7823 24.509 38.9902 24.6423 39.2462 24.7596C39.5021 24.8662 39.774 24.9782 40.0619 25.0955C40.4352 25.2341 40.8031 25.3941 41.1656 25.5754C41.5282 25.746 41.8268 25.9806 42.0614 26.2792C42.3066 26.5671 42.4292 26.9563 42.4292 27.4468C42.4292 27.8627 42.3173 28.2466 42.0933 28.5985C41.8801 28.9504 41.5602 29.233 41.1336 29.4463C40.7177 29.6595 40.2006 29.7662 39.5821 29.7662ZM44.2519 29.5742V21.8005H45.5635V29.5742H44.2519ZM44.9237 20.2009C44.6677 20.2009 44.4545 20.1263 44.2838 19.977C44.1239 19.817 44.0439 19.6038 44.0439 19.3372C44.0439 19.0812 44.1239 18.8733 44.2838 18.7133C44.4545 18.5534 44.6677 18.4734 44.9237 18.4734C45.1796 18.4734 45.3875 18.5534 45.5475 18.7133C45.7181 18.8733 45.8034 19.0812 45.8034 19.3372C45.8034 19.6038 45.7181 19.817 45.5475 19.977C45.3875 20.1263 45.1796 20.2009 44.9237 20.2009ZM50.8115 33.1572C49.8624 33.1572 49.0893 32.9759 48.4921 32.6133C47.895 32.2508 47.5964 31.7336 47.5964 31.0618C47.5964 30.7312 47.6977 30.4113 47.9003 30.1021C48.1029 29.8035 48.3802 29.5369 48.7321 29.3023V29.2383C48.5401 29.121 48.3748 28.9557 48.2362 28.7425C48.1082 28.5292 48.0443 28.2733 48.0443 27.9747C48.0443 27.6441 48.1349 27.3562 48.3162 27.1109C48.4975 26.8657 48.6894 26.6737 48.892 26.5351V26.4711C48.6361 26.2578 48.4015 25.9699 48.1882 25.6074C47.9856 25.2448 47.8843 24.8342 47.8843 24.3757C47.8843 23.8105 48.0176 23.32 48.2842 22.9041C48.5508 22.4883 48.908 22.1683 49.3559 21.9444C49.8038 21.7205 50.2889 21.6085 50.8115 21.6085C51.0247 21.6085 51.2273 21.6298 51.4193 21.6725C51.6112 21.7045 51.7765 21.7471 51.9151 21.8005H54.6184V22.8082H53.0188C53.2001 22.9788 53.3494 23.208 53.4667 23.496C53.5947 23.7732 53.6586 24.0771 53.6586 24.4077C53.6586 24.9622 53.5307 25.4421 53.2748 25.8473C53.0188 26.2525 52.6776 26.5671 52.251 26.791C51.8245 27.0043 51.3446 27.1109 50.8115 27.1109C50.3956 27.1109 50.0064 27.0203 49.6438 26.839C49.5052 26.9563 49.3879 27.0896 49.2919 27.2389C49.1959 27.3775 49.1479 27.5535 49.1479 27.7667C49.1479 28.012 49.2439 28.2146 49.4359 28.3746C49.6385 28.5345 50.001 28.6145 50.5235 28.6145H52.0271C52.9335 28.6145 53.6107 28.7638 54.0585 29.0624C54.5171 29.3503 54.7463 29.8195 54.7463 30.47C54.7463 30.9498 54.5864 31.3924 54.2665 31.7976C53.9466 32.2028 53.4934 32.528 52.9069 32.7733C52.3204 33.0292 51.6219 33.1572 50.8115 33.1572ZM50.8115 26.2312C51.2593 26.2312 51.6432 26.0659 51.9631 25.7353C52.2937 25.3941 52.459 24.9409 52.459 24.3757C52.459 23.8105 52.299 23.368 51.9791 23.0481C51.6592 22.7282 51.27 22.5682 50.8115 22.5682C50.3529 22.5682 49.9637 22.7282 49.6438 23.0481C49.3239 23.368 49.1639 23.8105 49.1639 24.3757C49.1639 24.9409 49.3239 25.3941 49.6438 25.7353C49.9744 26.0659 50.3636 26.2312 50.8115 26.2312ZM51.0034 32.2455C51.7499 32.2455 52.347 32.0802 52.7949 31.7496C53.2428 31.4297 53.4667 31.0671 53.4667 30.6619C53.4667 30.2993 53.3281 30.0487 53.0508 29.9101C52.7842 29.7715 52.4003 29.7022 51.8992 29.7022H50.5555C50.4062 29.7022 50.241 29.6915 50.0597 29.6702C49.8891 29.6489 49.7184 29.6169 49.5478 29.5742C49.2706 29.7768 49.068 29.9901 48.94 30.214C48.812 30.438 48.7481 30.6619 48.7481 30.8858C48.7481 31.3017 48.9453 31.6323 49.3399 31.8776C49.7451 32.1228 50.2996 32.2455 51.0034 32.2455ZM56.2484 29.5742V21.8005H57.3361L57.4481 22.9201H57.496C57.8693 22.5469 58.2638 22.2377 58.6797 21.9924C59.0956 21.7365 59.5701 21.6085 60.1033 21.6085C60.9244 21.6085 61.5216 21.8698 61.8948 22.3923C62.2787 22.9041 62.4706 23.6559 62.4706 24.6476V29.5742H61.159V24.8236C61.159 24.0985 61.0417 23.5706 60.8071 23.24C60.5725 22.9095 60.1993 22.7442 59.6874 22.7442C59.2929 22.7442 58.9356 22.8455 58.6157 23.0481C58.3065 23.2507 57.9546 23.5493 57.56 23.9438V29.5742H56.2484ZM68.147 29.7662C67.4538 29.7662 66.8247 29.6062 66.2595 29.2863C65.6944 28.9557 65.2465 28.4865 64.9159 27.8787C64.5853 27.2709 64.42 26.5458 64.42 25.7033C64.42 24.8502 64.5853 24.1198 64.9159 23.512C65.2571 22.9041 65.6944 22.4349 66.2275 22.1044C66.7607 21.7738 67.3205 21.6085 67.907 21.6085C68.8988 21.6085 69.6612 21.9391 70.1944 22.6002C70.7382 23.2614 71.0102 24.1464 71.0102 25.2555C71.0102 25.3941 71.0048 25.5327 70.9942 25.6713C70.9942 25.7993 70.9835 25.9113 70.9622 26.0072H65.7157C65.769 26.8283 66.0249 27.4842 66.4835 27.9747C66.9527 28.4652 67.5605 28.7105 68.3069 28.7105C68.6802 28.7105 69.0214 28.6571 69.3306 28.5505C69.6505 28.4332 69.9545 28.2839 70.2424 28.1026L70.7062 28.9664C70.3757 29.1797 69.9971 29.3663 69.5706 29.5262C69.1547 29.6862 68.6802 29.7662 68.147 29.7662ZM65.6997 25.0635H69.8585C69.8585 24.2744 69.6879 23.6772 69.3466 23.272C69.0161 22.8562 68.5469 22.6482 67.939 22.6482C67.3952 22.6482 66.9047 22.8615 66.4675 23.288C66.0409 23.7039 65.785 24.2957 65.6997 25.0635ZM75.5863 29.7662C74.616 29.7662 73.8375 29.4143 73.251 28.7105C72.6645 27.996 72.3713 26.9936 72.3713 25.7033C72.3713 24.8609 72.5259 24.1358 72.8351 23.528C73.155 22.9095 73.5709 22.4349 74.0828 22.1044C74.6053 21.7738 75.1598 21.6085 75.7463 21.6085C76.1942 21.6085 76.5834 21.6885 76.914 21.8484C77.2445 22.0084 77.5804 22.227 77.9217 22.5043L77.8577 21.1766V18.1855H79.1853V29.5742H78.0976L77.9857 28.6625H77.9377C77.6391 28.9611 77.2872 29.2223 76.882 29.4463C76.4768 29.6595 76.0449 29.7662 75.5863 29.7662ZM75.8743 28.6625C76.5567 28.6625 77.2179 28.3053 77.8577 27.5908V23.528C77.5271 23.2294 77.2072 23.0214 76.898 22.9041C76.5994 22.7762 76.2901 22.7122 75.9702 22.7122C75.5543 22.7122 75.1758 22.8402 74.8346 23.0961C74.504 23.3413 74.2374 23.6879 74.0348 24.1358C73.8322 24.573 73.7309 25.0902 73.7309 25.6873C73.7309 26.6151 73.9175 27.3455 74.2907 27.8787C74.6639 28.4012 75.1918 28.6625 75.8743 28.6625ZM86.7972 29.7662C86.1468 29.7662 85.6029 29.5742 85.1657 29.1903C84.7392 28.7958 84.5259 28.2519 84.5259 27.5588C84.5259 26.7057 84.9045 26.0552 85.6616 25.6074C86.4294 25.1488 87.6397 24.8289 89.2925 24.6476C89.2925 24.3171 89.2445 24.0025 89.1486 23.7039C89.0633 23.4053 88.9033 23.1654 88.6687 22.9841C88.4448 22.7922 88.1195 22.6962 87.693 22.6962C87.2451 22.6962 86.8239 22.7815 86.4294 22.9521C86.0348 23.1227 85.6829 23.3147 85.3737 23.528L84.8618 22.6162C85.2244 22.3816 85.6669 22.1577 86.1894 21.9444C86.7226 21.7205 87.2984 21.6085 87.9169 21.6085C88.866 21.6085 89.5538 21.9018 89.9803 22.4883C90.4069 23.0641 90.6201 23.8372 90.6201 24.8076V29.5742H89.5325L89.4205 28.6465H89.3725C89.0099 28.9451 88.6101 29.2063 88.1728 29.4303C87.7463 29.6542 87.2878 29.7662 86.7972 29.7662ZM87.1811 28.7105C87.5544 28.7105 87.9063 28.6198 88.2368 28.4385C88.5674 28.2573 88.9193 28.0013 89.2925 27.6708V25.5114C88.0022 25.6713 87.0958 25.9113 86.5733 26.2312C86.0615 26.5511 85.8055 26.9616 85.8055 27.4628C85.8055 27.9 85.9388 28.2199 86.2054 28.4225C86.472 28.6145 86.7972 28.7105 87.1811 28.7105ZM93.0659 29.5742V21.8005H94.1536L94.2656 22.9201H94.3136C94.6868 22.5469 95.0814 22.2377 95.4972 21.9924C95.9131 21.7365 96.3877 21.6085 96.9208 21.6085C97.7419 21.6085 98.3391 21.8698 98.7123 22.3923C99.0962 22.9041 99.2882 23.6559 99.2882 24.6476V29.5742H97.9765V24.8236C97.9765 24.0985 97.8592 23.5706 97.6246 23.24C97.39 22.9095 97.0168 22.7442 96.505 22.7442C96.1104 22.7442 95.7532 22.8455 95.4333 23.0481C95.124 23.2507 94.7721 23.5493 94.3776 23.9438V29.5742H93.0659ZM104.469 29.7662C103.498 29.7662 102.72 29.4143 102.133 28.7105C101.547 27.996 101.254 26.9936 101.254 25.7033C101.254 24.8609 101.408 24.1358 101.717 23.528C102.037 22.9095 102.453 22.4349 102.965 22.1044C103.488 21.7738 104.042 21.6085 104.629 21.6085C105.076 21.6085 105.466 21.6885 105.796 21.8484C106.127 22.0084 106.463 22.227 106.804 22.5043L106.74 21.1766V18.1855H108.068V29.5742H106.98L106.868 28.6625H106.82C106.521 28.9611 106.17 29.2223 105.764 29.4463C105.359 29.6595 104.927 29.7662 104.469 29.7662ZM104.757 28.6625C105.439 28.6625 106.1 28.3053 106.74 27.5908V23.528C106.409 23.2294 106.09 23.0214 105.78 22.9041C105.482 22.7762 105.172 22.7122 104.853 22.7122C104.437 22.7122 104.058 22.8402 103.717 23.0961C103.386 23.3413 103.12 23.6879 102.917 24.1358C102.714 24.573 102.613 25.0902 102.613 25.6873C102.613 26.6151 102.8 27.3455 103.173 27.8787C103.546 28.4012 104.074 28.6625 104.757 28.6625ZM113.888 29.5742V21.8005H114.976L115.088 22.9201H115.136C115.477 22.5469 115.85 22.2377 116.255 21.9924C116.661 21.7365 117.092 21.6085 117.551 21.6085C118.148 21.6085 118.612 21.7418 118.943 22.0084C119.284 22.2643 119.534 22.6269 119.694 23.0961C120.1 22.6589 120.51 22.3016 120.926 22.0244C121.342 21.7471 121.784 21.6085 122.254 21.6085C123.053 21.6085 123.645 21.8698 124.029 22.3923C124.424 22.9041 124.621 23.6559 124.621 24.6476V29.5742H123.309V24.8236C123.309 24.0985 123.192 23.5706 122.957 23.24C122.723 22.9095 122.36 22.7442 121.87 22.7442C121.294 22.7442 120.643 23.1441 119.918 23.9438V29.5742H118.607V24.8236C118.607 24.0985 118.489 23.5706 118.255 23.24C118.02 22.9095 117.652 22.7442 117.151 22.7442C116.575 22.7442 115.925 23.1441 115.2 23.9438V29.5742H113.888ZM128.941 29.7662C128.291 29.7662 127.747 29.5742 127.31 29.1903C126.883 28.7958 126.67 28.2519 126.67 27.5588C126.67 26.7057 127.049 26.0552 127.806 25.6074C128.573 25.1488 129.784 24.8289 131.437 24.6476C131.437 24.3171 131.389 24.0025 131.293 23.7039C131.207 23.4053 131.047 23.1654 130.813 22.9841C130.589 22.7922 130.264 22.6962 129.837 22.6962C129.389 22.6962 128.968 22.7815 128.573 22.9521C128.179 23.1227 127.827 23.3147 127.518 23.528L127.006 22.6162C127.368 22.3816 127.811 22.1577 128.334 21.9444C128.867 21.7205 129.443 21.6085 130.061 21.6085C131.01 21.6085 131.698 21.9018 132.124 22.4883C132.551 23.0641 132.764 23.8372 132.764 24.8076V29.5742H131.677L131.565 28.6465H131.517C131.154 28.9451 130.754 29.2063 130.317 29.4303C129.89 29.6542 129.432 29.7662 128.941 29.7662ZM129.325 28.7105C129.698 28.7105 130.05 28.6198 130.381 28.4385C130.712 28.2573 131.063 28.0013 131.437 27.6708V25.5114C130.146 25.6713 129.24 25.9113 128.717 26.2312C128.206 26.5511 127.95 26.9616 127.95 27.4628C127.95 27.9 128.083 28.2199 128.35 28.4225C128.616 28.6145 128.941 28.7105 129.325 28.7105ZM135.21 29.5742V21.8005H136.298L136.41 22.9201H136.458C136.831 22.5469 137.225 22.2377 137.641 21.9924C138.057 21.7365 138.532 21.6085 139.065 21.6085C139.886 21.6085 140.483 21.8698 140.856 22.3923C141.24 22.9041 141.432 23.6559 141.432 24.6476V29.5742H140.121V24.8236C140.121 24.0985 140.003 23.5706 139.769 23.24C139.534 22.9095 139.161 22.7442 138.649 22.7442C138.255 22.7442 137.897 22.8455 137.577 23.0481C137.268 23.2507 136.916 23.5493 136.522 23.9438V29.5742H135.21ZM146.229 29.7662C145.408 29.7662 144.805 29.5102 144.421 28.9984C144.038 28.4759 143.846 27.7188 143.846 26.727V21.8005H145.173V26.5511C145.173 27.2762 145.285 27.8041 145.509 28.1346C145.744 28.4652 146.117 28.6305 146.629 28.6305C147.034 28.6305 147.391 28.5292 147.7 28.3266C148.02 28.1133 148.362 27.7774 148.724 27.3189V21.8005H150.036V29.5742H148.948L148.836 28.3586H148.788C148.426 28.7851 148.042 29.1263 147.637 29.3823C147.231 29.6382 146.762 29.7662 146.229 29.7662ZM152.882 29.5742V22.8721H151.826V21.8804L152.882 21.8005V20.5688C152.882 19.7797 153.063 19.1559 153.426 18.6973C153.799 18.2281 154.375 17.9935 155.153 17.9935C155.399 17.9935 155.633 18.0202 155.857 18.0735C156.081 18.1162 156.278 18.1748 156.449 18.2495L156.161 19.2572C155.873 19.1292 155.58 19.0652 155.281 19.0652C154.556 19.0652 154.194 19.5664 154.194 20.5688V21.8005H155.841V22.8721H154.194V29.5742H152.882ZM158.808 29.7662C158.157 29.7662 157.613 29.5742 157.176 29.1903C156.75 28.7958 156.536 28.2519 156.536 27.5588C156.536 26.7057 156.915 26.0552 157.672 25.6074C158.44 25.1488 159.65 24.8289 161.303 24.6476C161.303 24.3171 161.255 24.0025 161.159 23.7039C161.074 23.4053 160.914 23.1654 160.679 22.9841C160.455 22.7922 160.13 22.6962 159.704 22.6962C159.256 22.6962 158.834 22.7815 158.44 22.9521C158.045 23.1227 157.693 23.3147 157.384 23.528L156.872 22.6162C157.235 22.3816 157.677 22.1577 158.2 21.9444C158.733 21.7205 159.309 21.6085 159.927 21.6085C160.877 21.6085 161.564 21.9018 161.991 22.4883C162.417 23.0641 162.631 23.8372 162.631 24.8076V29.5742H161.543L161.431 28.6465H161.383C161.02 28.9451 160.621 29.2063 160.183 29.4303C159.757 29.6542 159.298 29.7662 158.808 29.7662ZM159.192 28.7105C159.565 28.7105 159.917 28.6198 160.247 28.4385C160.578 28.2573 160.93 28.0013 161.303 27.6708V25.5114C160.013 25.6713 159.106 25.9113 158.584 26.2312C158.072 26.5511 157.816 26.9616 157.816 27.4628C157.816 27.9 157.949 28.2199 158.216 28.4225C158.483 28.6145 158.808 28.7105 159.192 28.7105ZM168.148 29.7662C167.465 29.7662 166.847 29.6062 166.292 29.2863C165.738 28.9664 165.3 28.5025 164.981 27.8947C164.661 27.2869 164.501 26.5564 164.501 25.7033C164.501 24.8289 164.671 24.0878 165.013 23.48C165.364 22.8721 165.823 22.4083 166.388 22.0884C166.964 21.7685 167.582 21.6085 168.244 21.6085C168.755 21.6085 169.193 21.6991 169.555 21.8804C169.928 22.0617 170.248 22.275 170.515 22.5202L169.843 23.384C169.619 23.1814 169.379 23.0161 169.123 22.8881C168.878 22.7602 168.601 22.6962 168.292 22.6962C167.822 22.6962 167.401 22.8242 167.028 23.0801C166.665 23.3253 166.377 23.6772 166.164 24.1358C165.962 24.5837 165.86 25.1062 165.86 25.7033C165.86 26.5884 166.079 27.3082 166.516 27.8627C166.964 28.4066 167.545 28.6785 168.26 28.6785C168.622 28.6785 168.958 28.6038 169.267 28.4545C169.577 28.2946 169.848 28.108 170.083 27.8947L170.659 28.7744C170.307 29.0837 169.918 29.329 169.491 29.5102C169.065 29.6809 168.617 29.7662 168.148 29.7662ZM174.662 29.7662C173.831 29.7662 173.249 29.5262 172.919 29.0464C172.599 28.5665 172.439 27.9427 172.439 27.1749V22.8721H171.287V21.8804L172.503 21.8005L172.663 19.6251H173.767V21.8005H175.862V22.8721H173.767V27.1909C173.767 27.6708 173.852 28.044 174.023 28.3106C174.204 28.5665 174.518 28.6945 174.966 28.6945C175.105 28.6945 175.254 28.6731 175.414 28.6305C175.574 28.5772 175.718 28.5292 175.846 28.4865L176.102 29.4782C175.889 29.5529 175.654 29.6169 175.398 29.6702C175.153 29.7342 174.908 29.7662 174.662 29.7662ZM179.891 29.7662C179.07 29.7662 178.467 29.5102 178.084 28.9984C177.7 28.4759 177.508 27.7188 177.508 26.727V21.8005H178.835V26.5511C178.835 27.2762 178.947 27.8041 179.171 28.1346C179.406 28.4652 179.779 28.6305 180.291 28.6305C180.696 28.6305 181.053 28.5292 181.363 28.3266C181.683 28.1133 182.024 27.7774 182.386 27.3189V21.8005H183.698V29.5742H182.61L182.498 28.3586H182.45C182.088 28.7851 181.704 29.1263 181.299 29.3823C180.893 29.6382 180.424 29.7662 179.891 29.7662ZM186.32 29.5742V21.8005H187.408L187.52 23.208H187.568C187.835 22.7175 188.16 22.3283 188.544 22.0404C188.928 21.7525 189.338 21.6085 189.775 21.6085C190.085 21.6085 190.362 21.6618 190.607 21.7685L190.351 22.9201C190.223 22.8775 190.106 22.8455 189.999 22.8242C189.893 22.8028 189.759 22.7922 189.599 22.7922C189.269 22.7922 188.922 22.9255 188.56 23.1921C188.208 23.4586 187.899 23.9225 187.632 24.5837V29.5742H186.32ZM194.861 29.7662C194.167 29.7662 193.538 29.6062 192.973 29.2863C192.408 28.9557 191.96 28.4865 191.629 27.8787C191.299 27.2709 191.134 26.5458 191.134 25.7033C191.134 24.8502 191.299 24.1198 191.629 23.512C191.971 22.9041 192.408 22.4349 192.941 22.1044C193.474 21.7738 194.034 21.6085 194.621 21.6085C195.612 21.6085 196.375 21.9391 196.908 22.6002C197.452 23.2614 197.724 24.1464 197.724 25.2555C197.724 25.3941 197.718 25.5327 197.708 25.6713C197.708 25.7993 197.697 25.9113 197.676 26.0072H192.429C192.483 26.8283 192.738 27.4842 193.197 27.9747C193.666 28.4652 194.274 28.7105 195.02 28.7105C195.394 28.7105 195.735 28.6571 196.044 28.5505C196.364 28.4332 196.668 28.2839 196.956 28.1026L197.42 28.9664C197.089 29.1797 196.711 29.3663 196.284 29.5262C195.868 29.6862 195.394 29.7662 194.861 29.7662ZM192.413 25.0635H196.572C196.572 24.2744 196.401 23.6772 196.06 23.272C195.73 22.8562 195.26 22.6482 194.653 22.6482C194.109 22.6482 193.618 22.8615 193.181 23.288C192.754 23.7039 192.499 24.2957 192.413 25.0635ZM202.3 29.7662C201.33 29.7662 200.551 29.4143 199.965 28.7105C199.378 27.996 199.085 26.9936 199.085 25.7033C199.085 24.8609 199.239 24.1358 199.549 23.528C199.869 22.9095 200.284 22.4349 200.796 22.1044C201.319 21.7738 201.873 21.6085 202.46 21.6085C202.908 21.6085 203.297 21.6885 203.628 21.8484C203.958 22.0084 204.294 22.227 204.635 22.5043L204.571 21.1766V18.1855H205.899V29.5742H204.811L204.699 28.6625H204.651C204.353 28.9611 204.001 29.2223 203.596 29.4463C203.19 29.6595 202.758 29.7662 202.3 29.7662ZM202.588 28.6625C203.27 28.6625 203.931 28.3053 204.571 27.5908V23.528C204.241 23.2294 203.921 23.0214 203.612 22.9041C203.313 22.7762 203.004 22.7122 202.684 22.7122C202.268 22.7122 201.889 22.8402 201.548 23.0961C201.218 23.3413 200.951 23.6879 200.748 24.1358C200.546 24.573 200.444 25.0902 200.444 25.6873C200.444 26.6151 200.631 27.3455 201.004 27.8787C201.377 28.4012 201.905 28.6625 202.588 28.6625ZM215.158 29.7662C214.796 29.7662 214.417 29.6809 214.023 29.5102C213.639 29.329 213.276 29.0837 212.935 28.7744H212.887L212.775 29.5742H211.719V18.1855H213.031V21.2886L212.999 22.6962C213.351 22.387 213.735 22.131 214.151 21.9284C214.577 21.7151 215.004 21.6085 215.43 21.6085C216.443 21.6085 217.211 21.9657 217.734 22.6802C218.256 23.3947 218.517 24.3544 218.517 25.5594C218.517 26.4445 218.357 27.2016 218.038 27.8307C217.728 28.4599 217.318 28.9397 216.806 29.2703C216.305 29.6009 215.755 29.7662 215.158 29.7662ZM214.934 28.6625C215.574 28.6625 216.102 28.3906 216.518 27.8467C216.944 27.2922 217.158 26.5351 217.158 25.5754C217.158 24.7223 216.998 24.0345 216.678 23.512C216.369 22.9788 215.846 22.7122 215.11 22.7122C214.78 22.7122 214.444 22.8028 214.103 22.9841C213.761 23.1654 213.404 23.4267 213.031 23.7679V27.8467C213.372 28.1453 213.708 28.3586 214.039 28.4865C214.38 28.6038 214.678 28.6625 214.934 28.6625ZM220.626 32.9173C220.455 32.9173 220.29 32.9013 220.13 32.8693C219.981 32.8373 219.842 32.8 219.714 32.7573L219.97 31.7176C220.056 31.7389 220.151 31.7603 220.258 31.7816C220.365 31.8136 220.466 31.8296 220.562 31.8296C220.999 31.8296 221.362 31.6696 221.65 31.3497C221.938 31.0405 222.162 30.6459 222.322 30.166L222.497 29.5902L219.378 21.8005H220.738L222.322 26.1032C222.439 26.4338 222.561 26.791 222.689 27.1749C222.828 27.5588 222.956 27.932 223.073 28.2946H223.137C223.255 27.9427 223.367 27.5748 223.473 27.1909C223.58 26.807 223.686 26.4445 223.793 26.1032L225.185 21.8005H226.464L223.537 30.214C223.356 30.7259 223.137 31.1844 222.881 31.5896C222.636 31.9949 222.327 32.3148 221.954 32.5494C221.591 32.7946 221.149 32.9173 220.626 32.9173Z" fill="#676767"/>
<path d="M93.2982 56.8496H22.2083C20.0992 56.8496 18.4863 58.5912 18.4863 60.5816V131.862C18.4863 133.976 20.2233 135.594 22.2083 135.594H93.2982C95.4073 135.594 97.0202 133.852 97.0202 131.862V60.5816C97.0202 58.4668 95.2833 56.8496 93.2982 56.8496Z" stroke="#676767" stroke-width="0.75" stroke-miterlimit="10" stroke-linecap="round"/>
<path d="M66.1277 93.5469L49.2547 98.7716L46.1531 100.016L34.8631 111.087L29.6523 118.426L23.6971 125.144L21.3398 131.613" stroke="#676767" stroke-width="0.5" stroke-miterlimit="10" stroke-linecap="round"/>
<path d="M49.9991 110.216L46.1531 100.016L32.7539 87.9491L32.878 76.8777L39.9497 56.8496" stroke="#676767" stroke-width="0.5" stroke-miterlimit="10" stroke-linecap="round"/>
<path d="M42.6792 61.7012L35.9796 66.9259L29.9004 63.9403" stroke="#676767" stroke-width="0.5" stroke-miterlimit="10" stroke-linecap="round"/>
<path d="M32.878 76.8781L21.9602 66.8018L18.4863 65.8066" stroke="#676767" stroke-width="0.5" stroke-miterlimit="10" stroke-linecap="round"/>
<path d="M24.3182 62.0742L21.9609 66.8013" stroke="#676767" stroke-width="0.5" stroke-miterlimit="10" stroke-linecap="round"/>
<path d="M27.668 83.8438L32.7547 87.9489L30.5215 91.9296" stroke="#676767" stroke-width="0.5" stroke-miterlimit="10" stroke-linecap="round"/>
<path d="M24.4414 98.2744L25.9302 104.619L34.863 111.087L38.8331 116.063L39.7015 120.666" stroke="#676767" stroke-width="0.5" stroke-miterlimit="10" stroke-linecap="round"/>
<path d="M25.9305 104.618L23.6973 105.862" stroke="#676767" stroke-width="0.5" stroke-miterlimit="10" stroke-linecap="round"/>
<path d="M36.4766 119.298L38.8338 116.063L43.1761 113.575" stroke="#676767" stroke-width="0.5" stroke-miterlimit="10" stroke-linecap="round"/>
<path d="M33.8713 130.493L37.3451 123.03L29.653 118.427L24.0701 111.834L23.6979 111.585L21.9609 112.083" stroke="#676767" stroke-width="0.5" stroke-miterlimit="10" stroke-linecap="round"/>
<path d="M45.4081 125.268L37.3438 123.029" stroke="#676767" stroke-width="0.5" stroke-miterlimit="10" stroke-linecap="round"/>
<path d="M40.4453 123.9L41.9341 128.876" stroke="#676767" stroke-width="0.5" stroke-miterlimit="10" stroke-linecap="round"/>
<path d="M28.0389 117.059L21.0912 116.934L19.9746 115.441" stroke="#676767" stroke-width="0.5" stroke-miterlimit="10" stroke-linecap="round"/>
<path d="M23.6971 125.144L21.712 123.651L18.4863 119.173" stroke="#676767" stroke-width="0.5" stroke-miterlimit="10" stroke-linecap="round"/>
<path d="M19.1074 124.149L21.7128 123.651" stroke="#676767" stroke-width="0.5" stroke-miterlimit="10" stroke-linecap="round"/>
<path d="M24.3184 124.771L26.4275 126.636L28.7847 132.483" stroke="#676767" stroke-width="0.5" stroke-miterlimit="10" stroke-linecap="round"/>
<path d="M49.2539 98.7719L66.1269 93.5471L69.3526 92.3032L80.5186 81.3561L85.7294 73.8923L91.6845 67.2992L94.1659 60.7061" stroke="#676767" stroke-width="0.5" stroke-miterlimit="10" stroke-linecap="round"/>
<path d="M65.3828 82.2275L69.3529 92.3038L82.628 104.495L82.5039 115.442L75.5562 135.594" stroke="#676767" stroke-width="0.5" stroke-miterlimit="10" stroke-linecap="round"/>
<path d="M72.8262 130.618L79.5257 125.518L85.4809 128.379" stroke="#676767" stroke-width="0.5" stroke-miterlimit="10" stroke-linecap="round"/>
<path d="M82.5039 115.441L93.5458 125.518L97.0196 126.513" stroke="#676767" stroke-width="0.5" stroke-miterlimit="10" stroke-linecap="round"/>
<path d="M91.1875 130.245L93.5448 125.518" stroke="#676767" stroke-width="0.5" stroke-miterlimit="10" stroke-linecap="round"/>
<path d="M87.8377 108.6L82.627 104.494L84.9842 100.514" stroke="#676767" stroke-width="0.5" stroke-miterlimit="10" stroke-linecap="round"/>
<path d="M91.0648 94.0446L89.576 87.7003L80.5192 81.356L76.6732 76.2557L75.8047 71.7773" stroke="#676767" stroke-width="0.5" stroke-miterlimit="10" stroke-linecap="round"/>
<path d="M89.5762 87.7006L91.8094 86.5811" stroke="#676767" stroke-width="0.5" stroke-miterlimit="10" stroke-linecap="round"/>
<path d="M79.0297 73.0215L76.6724 76.2558L72.3301 78.7438" stroke="#676767" stroke-width="0.5" stroke-miterlimit="10" stroke-linecap="round"/>
<path d="M81.5119 61.9502L78.1621 69.2897L85.7301 73.8924L91.3131 80.6099L91.8094 80.7343L93.5463 80.3611" stroke="#676767" stroke-width="0.5" stroke-miterlimit="10" stroke-linecap="round"/>
<path d="M69.9727 67.0508L78.161 69.2899" stroke="#676767" stroke-width="0.5" stroke-miterlimit="10" stroke-linecap="round"/>
<path d="M74.935 68.4189L73.5703 63.5674" stroke="#676767" stroke-width="0.5" stroke-miterlimit="10" stroke-linecap="round"/>
<path d="M87.4668 75.2607L94.4145 75.3851L95.5311 76.8779" stroke="#676767" stroke-width="0.5" stroke-miterlimit="10" stroke-linecap="round"/>
<path d="M91.6836 67.2998L93.7927 68.7926L97.0184 73.2709" stroke="#676767" stroke-width="0.5" stroke-miterlimit="10" stroke-linecap="round"/>
<path d="M96.3984 68.1699L93.793 68.7919" stroke="#676767" stroke-width="0.5" stroke-miterlimit="10" stroke-linecap="round"/>
<path d="M91.189 67.5482L89.0799 65.8067L86.7227 59.96" stroke="#676767" stroke-width="0.5" stroke-miterlimit="10" stroke-linecap="round"/>
<path d="M57.6905 56.8496L57.5664 135.594" stroke="#676767" stroke-width="0.5" stroke-miterlimit="10" stroke-linecap="round"/>
</svg>
