<svg xmlns="http://www.w3.org/2000/svg" width="1920" height="3620" viewBox="0 0 1920 3620" fill="none">
  <path d="M782.615 0L744.882 334.817M744.882 334.817L860.777 938.15M744.882 334.817H561.607M744.882 334.817L936.243 348.077L1213.85 66.3004M860.777 938.15L917.376 1604.47M860.777 938.15L744.882 1000.67M860.777 938.15L1394.43 911.63M917.376 1604.47L1178.81 2675.22M917.376 1604.47L251.656 1690.66M917.376 1604.47L1278.54 1405.57M1178.81 2675.22L1920 3620M1178.81 2675.22L1680.13 2168.02M1178.81 2675.22L130.371 2943.75M1 2976.89L130.371 2943.75M1 3291.81L130.371 2943.75M130.371 2943.75V2645.38M27.9522 1998.96L251.656 1690.66M251.656 1690.66L170.799 1528.22M1459.12 1127.11L1278.54 1405.57M1278.54 1405.57L1418.69 1727.12M1278.54 1405.57L1235.41 1160.26M283.999 1070.75L399.893 1186.78L744.882 1000.67M251.656 788.974L378.331 739.249L744.882 1000.67M1890.35 1127.11L1572.32 988.92M1394.43 911.63L1418.69 367.967M1394.43 911.63L1572.32 988.92M1812.19 739.249L1572.32 988.92M316.341 513.828L561.607 334.817M561.607 334.817L464.579 188.956" stroke="#444444" stroke-opacity="0.14"/>
</svg>
