<svg width="27" height="23" viewBox="0 0 27 23" fill="none" xmlns="http://www.w3.org/2000/svg">
<path d="M19.1395 0C16.8428 0 14.6385 1.0125 13.1997 2.6125C11.7609 1.0125 9.55657 0 7.25983 0C3.19432 0 0 3.025 0 6.875C0 11.6 4.48789 15.45 11.2857 21.3L13.1997 22.9375L15.1136 21.2875C21.9115 15.45 26.3994 11.6 26.3994 6.875C26.3994 3.025 23.205 0 19.1395 0ZM13.3317 19.4375L13.1997 19.5625L13.0677 19.4375C6.78464 14.05 2.63994 10.4875 2.63994 6.875C2.63994 4.375 4.61989 2.5 7.25983 2.5C9.29258 2.5 11.2725 3.7375 11.9721 5.45H14.4405C15.1268 3.7375 17.1068 2.5 19.1395 2.5C21.7795 2.5 23.7594 4.375 23.7594 6.875C23.7594 10.4875 19.6147 14.05 13.3317 19.4375Z" fill="#0D6EFD"/>
</svg>
