<svg width="65" height="70" viewBox="0 0 65 70" fill="none" xmlns="http://www.w3.org/2000/svg">
<path d="M19.71 44.96H28.17V64.8C25.1 64.26 22.26 63.37 19.71 62.04V44.96Z" fill="#FBC201"/>
<path d="M31.5701 36.26H40.0301L40.0601 64.38C37.4001 65.16 34.5501 65.33 31.5701 65.14V36.26Z" fill="#FBC201"/>
<path d="M43.4402 27.4199H51.9002V58.8499C49.1502 60.8699 46.3802 62.5199 43.4902 63.3899L43.4402 27.4199Z" fill="#FBC201"/>
<path d="M61.9601 47.53C60.0401 46.64 57.7501 47.3 56.5901 49.07C52.0001 56.1 44.0701 60.74 35.0501 60.74C20.8501 60.72 9.34008 49.22 9.33008 35.02C9.33008 20.81 20.8501 9.30004 35.0501 9.30004C35.5601 9.30004 36.0601 9.31004 36.5701 9.34004C38.7101 9.46004 40.6201 8.05004 41.0501 5.95004L41.1001 5.73004C41.6201 3.19004 39.7801 0.770039 37.2001 0.610039C36.4901 0.570039 35.7801 0.540039 35.0601 0.540039C16.0201 0.560039 0.600078 15.99 0.580078 35.02C0.580078 54.06 16.0101 69.49 35.0501 69.49C47.1701 69.49 57.8301 63.23 63.9801 53.77C65.3801 51.62 64.5001 48.71 62.1701 47.63L61.9601 47.53Z" fill="#FBC201"/>
<path d="M39.07 29.32L39.03 29.3301L39.06 29.3L39.07 29.32Z" fill="#FBC201"/>
<path d="M39.03 29.3301L39 29.3501L38.99 29.3401L39.03 29.3301Z" fill="#FBC201"/>
<path d="M38.46 29.18C38.29 29.37 38.08 29.52 37.86 29.64L21.93 35.33C21.78 35.41 21.63 35.5 21.5 35.62L7.57001 47.62C6.68001 48.38 5.34002 48.28 4.58002 47.4L3.91001 46.63C3.15001 45.74 3.25002 44.4 4.13002 43.64L18.38 31.37C18.44 31.32 18.5 31.28 18.56 31.23L18.9 30.99C18.98 30.93 19.06 30.89 19.15 30.84L34.77 25.53C35.06 25.38 35.31 25.18 35.5 24.92L47.26 5.22997C47.97 4.29997 49.3 4.11997 50.23 4.81997L51.04 5.43998C51.97 6.14998 52.15 7.47998 51.45 8.40998L38.59 29.03C38.55 29.08 38.51 29.13 38.46 29.18Z" fill="#FBC201"/>
<path d="M6.18996 49.24C5.27996 49.24 4.36996 48.86 3.72996 48.12L3.05996 47.35C2.49996 46.69 2.21996 45.86 2.27996 45C2.33996 44.14 2.73996 43.35 3.39996 42.79L17.65 30.52C17.74 30.45 17.83 30.38 17.92 30.31L18.26 30.07C18.39 29.98 18.51 29.91 18.64 29.84L18.78 29.78L34.32 24.5C34.42 24.44 34.5 24.37 34.58 24.28L46.38 4.54997C46.9 3.85997 47.66 3.41997 48.52 3.29997C49.38 3.17997 50.23 3.40997 50.92 3.92997L51.73 4.54997C53.14 5.61997 53.42 7.61997 52.38 9.03997L39.48 29.7C39.42 29.78 39.35 29.86 39.28 29.94C39.02 30.23 38.71 30.46 38.36 30.64L38.23 30.7L22.38 36.36C22.33 36.39 22.28 36.43 22.23 36.47L8.29996 48.47C7.68996 48.98 6.93996 49.24 6.18996 49.24ZM19.61 31.86C19.59 31.87 19.57 31.89 19.54 31.9L19.2 32.13C19.17 32.15 19.14 32.17 19.12 32.19L4.86996 44.47C4.66996 44.64 4.54996 44.89 4.52996 45.15C4.50996 45.42 4.59996 45.68 4.76996 45.88L5.43996 46.65C5.79996 47.07 6.42996 47.12 6.84996 46.75L20.78 34.75C20.98 34.58 21.2 34.43 21.43 34.31L21.56 34.25L37.41 28.59C37.5 28.54 37.58 28.48 37.65 28.4C37.66 28.39 37.67 28.37 37.68 28.36L50.58 7.68997C50.91 7.24997 50.83 6.61997 50.39 6.28997L49.58 5.67997C49.37 5.51997 49.1 5.44997 48.84 5.48997C48.59 5.51997 48.37 5.64997 48.21 5.83997L36.41 25.59C36.11 25.98 35.73 26.3 35.29 26.52L35.15 26.58L19.61 31.86Z" fill="#FBC201"/>
</svg>
