<svg width="85" height="84" viewBox="0 0 85 84" fill="none" xmlns="http://www.w3.org/2000/svg">
<rect width="85" height="84" rx="7" fill="white"/>
<path d="M77.8119 3H6.72198C4.61286 3 3 4.74157 3 6.73194V78.012C3 80.1268 4.73693 81.744 6.72198 81.744H77.8119C79.921 81.744 81.5339 80.0024 81.5339 78.012V6.73194C81.5339 4.61718 79.7969 3 77.8119 3Z" stroke="#575756" stroke-width="0.75" stroke-miterlimit="10" stroke-linecap="round"/>
<path d="M50.6414 39.6975L33.7684 44.9222L30.6667 46.1662L19.3767 57.2376L14.1659 64.5771L8.21077 71.2946L5.85352 77.7633" stroke="#3C3C3B" stroke-width="0.5" stroke-miterlimit="10" stroke-linecap="round"/>
<path d="M34.5128 56.3668L30.6667 46.1661L17.2676 34.0995L17.3916 23.0281L24.4634 3" stroke="#3C3C3B" stroke-width="0.5" stroke-miterlimit="10" stroke-linecap="round"/>
<path d="M27.1929 7.85156L20.4933 13.0763L14.4141 10.0907" stroke="#3C3C3B" stroke-width="0.5" stroke-miterlimit="10" stroke-linecap="round"/>
<path d="M17.3917 23.028L6.47385 12.9517L3 11.9565" stroke="#3C3C3B" stroke-width="0.5" stroke-miterlimit="10" stroke-linecap="round"/>
<path d="M8.83113 8.22461L6.47388 12.9517" stroke="#3C3C3B" stroke-width="0.5" stroke-miterlimit="10" stroke-linecap="round"/>
<path d="M12.1809 29.9944L17.2676 34.0995L15.0344 38.0803" stroke="#3C3C3B" stroke-width="0.5" stroke-miterlimit="10" stroke-linecap="round"/>
<path d="M8.95508 44.4246L10.4439 50.7689L19.3766 57.2376L23.3468 62.2135L24.2152 66.8162" stroke="#3C3C3B" stroke-width="0.5" stroke-miterlimit="10" stroke-linecap="round"/>
<path d="M10.4439 50.7688L8.21069 52.0128" stroke="#3C3C3B" stroke-width="0.5" stroke-miterlimit="10" stroke-linecap="round"/>
<path d="M20.9895 65.4479L23.3468 62.2135L27.6891 59.7256" stroke="#3C3C3B" stroke-width="0.5" stroke-miterlimit="10" stroke-linecap="round"/>
<path d="M18.3842 76.6436L21.8581 69.1797L14.166 64.577L8.583 57.9839L8.2108 57.7351L6.47388 58.2327" stroke="#3C3C3B" stroke-width="0.5" stroke-miterlimit="10" stroke-linecap="round"/>
<path d="M29.9225 71.4189L21.8582 69.1797" stroke="#3C3C3B" stroke-width="0.5" stroke-miterlimit="10" stroke-linecap="round"/>
<path d="M24.9597 70.0505L26.4485 75.0265" stroke="#3C3C3B" stroke-width="0.5" stroke-miterlimit="10" stroke-linecap="round"/>
<path d="M12.5531 63.2087L5.60536 63.0843L4.48877 61.5916" stroke="#3C3C3B" stroke-width="0.5" stroke-miterlimit="10" stroke-linecap="round"/>
<path d="M8.21078 71.2946L6.22572 69.8018L3 65.3235" stroke="#3C3C3B" stroke-width="0.5" stroke-miterlimit="10" stroke-linecap="round"/>
<path d="M3.62036 70.2994L6.22575 69.8018" stroke="#3C3C3B" stroke-width="0.5" stroke-miterlimit="10" stroke-linecap="round"/>
<path d="M8.83105 70.9214L10.9402 72.7874L13.2974 78.6341" stroke="#3C3C3B" stroke-width="0.5" stroke-miterlimit="10" stroke-linecap="round"/>
<path d="M33.7683 44.922L50.6413 39.6973L53.867 38.4533L65.033 27.5063L70.2438 20.0424L76.1989 13.4493L78.6803 6.8562" stroke="#3C3C3B" stroke-width="0.5" stroke-miterlimit="10" stroke-linecap="round"/>
<path d="M49.897 28.3772L53.8671 38.4534L67.1422 50.6445L67.0181 61.5915L60.0704 81.744" stroke="#3C3C3B" stroke-width="0.5" stroke-miterlimit="10" stroke-linecap="round"/>
<path d="M57.3408 76.768L64.0404 71.6677L69.9956 74.5289" stroke="#3C3C3B" stroke-width="0.5" stroke-miterlimit="10" stroke-linecap="round"/>
<path d="M67.0181 61.5913L78.06 71.6676L81.5338 72.6627" stroke="#3C3C3B" stroke-width="0.5" stroke-miterlimit="10" stroke-linecap="round"/>
<path d="M75.7026 76.3948L78.0599 71.6677" stroke="#3C3C3B" stroke-width="0.5" stroke-miterlimit="10" stroke-linecap="round"/>
<path d="M72.3529 54.7495L67.1421 50.6443L69.4993 46.6636" stroke="#3C3C3B" stroke-width="0.5" stroke-miterlimit="10" stroke-linecap="round"/>
<path d="M75.5785 40.195L74.0897 33.8507L65.0329 27.5064L61.1868 22.4061L60.3184 17.9277" stroke="#3C3C3B" stroke-width="0.5" stroke-miterlimit="10" stroke-linecap="round"/>
<path d="M74.0898 33.8505L76.323 32.731" stroke="#3C3C3B" stroke-width="0.5" stroke-miterlimit="10" stroke-linecap="round"/>
<path d="M63.5443 19.1716L61.187 22.406L56.8447 24.8939" stroke="#3C3C3B" stroke-width="0.5" stroke-miterlimit="10" stroke-linecap="round"/>
<path d="M66.0256 8.10034L62.6758 15.4398L70.2438 20.0426L75.8268 26.7601L76.3231 26.8845L78.06 26.5113" stroke="#3C3C3B" stroke-width="0.5" stroke-miterlimit="10" stroke-linecap="round"/>
<path d="M54.4873 13.2004L62.6757 15.4396" stroke="#3C3C3B" stroke-width="0.5" stroke-miterlimit="10" stroke-linecap="round"/>
<path d="M59.4499 14.5688L58.0852 9.71729" stroke="#3C3C3B" stroke-width="0.5" stroke-miterlimit="10" stroke-linecap="round"/>
<path d="M71.9807 21.4109L78.9284 21.5353L80.045 23.0281" stroke="#3C3C3B" stroke-width="0.5" stroke-miterlimit="10" stroke-linecap="round"/>
<path d="M76.199 13.4495L78.3081 14.9422L81.5338 19.4206" stroke="#3C3C3B" stroke-width="0.5" stroke-miterlimit="10" stroke-linecap="round"/>
<path d="M80.9135 14.3201L78.3081 14.9421" stroke="#3C3C3B" stroke-width="0.5" stroke-miterlimit="10" stroke-linecap="round"/>
<path d="M75.7027 13.6981L73.5936 11.9566L71.2363 6.10986" stroke="#3C3C3B" stroke-width="0.5" stroke-miterlimit="10" stroke-linecap="round"/>
<path d="M42.2049 3L42.0808 81.744" stroke="#3C3C3B" stroke-width="0.5" stroke-miterlimit="10" stroke-linecap="round"/>
</svg>
