<svg width="80" height="80" viewBox="0 0 80 80" fill="none" xmlns="http://www.w3.org/2000/svg">
<path d="M48.6414 37.6975L31.7684 42.9222L28.6667 44.1662L17.3767 55.2376L12.1659 62.5771L6.21077 69.2946L3.85352 75.7633" stroke="#3C3C3B" stroke-width="0.5" stroke-miterlimit="10" stroke-linecap="round"/>
<path d="M32.5128 54.3668L28.6667 44.1661L15.2676 32.0995L15.3916 21.0281L22.4634 1" stroke="#3C3C3B" stroke-width="0.5" stroke-miterlimit="10" stroke-linecap="round"/>
<path d="M25.1929 5.85156L18.4933 11.0763L12.4141 8.09073" stroke="#3C3C3B" stroke-width="0.5" stroke-miterlimit="10" stroke-linecap="round"/>
<path d="M15.3917 21.028L4.47385 10.9517L1 9.95654" stroke="#3C3C3B" stroke-width="0.5" stroke-miterlimit="10" stroke-linecap="round"/>
<path d="M6.83113 6.22461L4.47388 10.9517" stroke="#3C3C3B" stroke-width="0.5" stroke-miterlimit="10" stroke-linecap="round"/>
<path d="M10.1809 27.9944L15.2676 32.0995L13.0344 36.0803" stroke="#3C3C3B" stroke-width="0.5" stroke-miterlimit="10" stroke-linecap="round"/>
<path d="M6.95508 42.4246L8.44387 48.7689L17.3766 55.2376L21.3468 60.2135L22.2152 64.8162" stroke="#3C3C3B" stroke-width="0.5" stroke-miterlimit="10" stroke-linecap="round"/>
<path d="M8.44388 48.7688L6.21069 50.0128" stroke="#3C3C3B" stroke-width="0.5" stroke-miterlimit="10" stroke-linecap="round"/>
<path d="M18.9895 63.4479L21.3468 60.2135L25.6891 57.7256" stroke="#3C3C3B" stroke-width="0.5" stroke-miterlimit="10" stroke-linecap="round"/>
<path d="M16.3842 74.6436L19.8581 67.1797L12.166 62.577L6.583 55.9839L6.2108 55.7351L4.47388 56.2327" stroke="#3C3C3B" stroke-width="0.5" stroke-miterlimit="10" stroke-linecap="round"/>
<path d="M27.9225 69.4189L19.8582 67.1797" stroke="#3C3C3B" stroke-width="0.5" stroke-miterlimit="10" stroke-linecap="round"/>
<path d="M22.9597 68.0505L24.4485 73.0265" stroke="#3C3C3B" stroke-width="0.5" stroke-miterlimit="10" stroke-linecap="round"/>
<path d="M10.5531 61.2087L3.60536 61.0843L2.48877 59.5916" stroke="#3C3C3B" stroke-width="0.5" stroke-miterlimit="10" stroke-linecap="round"/>
<path d="M6.21078 69.2946L4.22572 67.8018L1 63.3235" stroke="#3C3C3B" stroke-width="0.5" stroke-miterlimit="10" stroke-linecap="round"/>
<path d="M1.62036 68.2994L4.22575 67.8018" stroke="#3C3C3B" stroke-width="0.5" stroke-miterlimit="10" stroke-linecap="round"/>
<path d="M6.83105 68.9214L8.94018 70.7874L11.2974 76.6341" stroke="#3C3C3B" stroke-width="0.5" stroke-miterlimit="10" stroke-linecap="round"/>
<path d="M31.7683 42.922L48.6413 37.6973L51.867 36.4533L63.033 25.5063L68.2438 18.0424L74.1989 11.4493L76.6803 4.8562" stroke="#3C3C3B" stroke-width="0.5" stroke-miterlimit="10" stroke-linecap="round"/>
<path d="M47.897 26.3772L51.8671 36.4534L65.1422 48.6445L65.0181 59.5915L58.0704 79.744" stroke="#3C3C3B" stroke-width="0.5" stroke-miterlimit="10" stroke-linecap="round"/>
<path d="M55.3408 74.768L62.0404 69.6677L67.9956 72.5289" stroke="#3C3C3B" stroke-width="0.5" stroke-miterlimit="10" stroke-linecap="round"/>
<path d="M65.0181 59.5913L76.06 69.6676L79.5338 70.6627" stroke="#3C3C3B" stroke-width="0.5" stroke-miterlimit="10" stroke-linecap="round"/>
<path d="M73.7026 74.3948L76.0599 69.6677" stroke="#3C3C3B" stroke-width="0.5" stroke-miterlimit="10" stroke-linecap="round"/>
<path d="M70.3529 52.7495L65.1421 48.6443L67.4993 44.6636" stroke="#3C3C3B" stroke-width="0.5" stroke-miterlimit="10" stroke-linecap="round"/>
<path d="M73.5785 38.195L72.0897 31.8507L63.0329 25.5064L59.1868 20.4061L58.3184 15.9277" stroke="#3C3C3B" stroke-width="0.5" stroke-miterlimit="10" stroke-linecap="round"/>
<path d="M72.0898 31.8505L74.323 30.731" stroke="#3C3C3B" stroke-width="0.5" stroke-miterlimit="10" stroke-linecap="round"/>
<path d="M61.5443 17.1716L59.187 20.406L54.8447 22.8939" stroke="#3C3C3B" stroke-width="0.5" stroke-miterlimit="10" stroke-linecap="round"/>
<path d="M64.0256 6.10034L60.6758 13.4398L68.2438 18.0426L73.8268 24.7601L74.3231 24.8845L76.06 24.5113" stroke="#3C3C3B" stroke-width="0.5" stroke-miterlimit="10" stroke-linecap="round"/>
<path d="M52.4873 11.2004L60.6757 13.4396" stroke="#3C3C3B" stroke-width="0.5" stroke-miterlimit="10" stroke-linecap="round"/>
<path d="M57.4499 12.5688L56.0852 7.71729" stroke="#3C3C3B" stroke-width="0.5" stroke-miterlimit="10" stroke-linecap="round"/>
<path d="M69.9807 19.4109L76.9284 19.5353L78.045 21.0281" stroke="#3C3C3B" stroke-width="0.5" stroke-miterlimit="10" stroke-linecap="round"/>
<path d="M74.199 11.4495L76.3081 12.9422L79.5338 17.4206" stroke="#3C3C3B" stroke-width="0.5" stroke-miterlimit="10" stroke-linecap="round"/>
<path d="M78.9135 12.3201L76.3081 12.9421" stroke="#3C3C3B" stroke-width="0.5" stroke-miterlimit="10" stroke-linecap="round"/>
<path d="M73.7027 11.6981L71.5936 9.95657L69.2363 4.10986" stroke="#3C3C3B" stroke-width="0.5" stroke-miterlimit="10" stroke-linecap="round"/>
<path d="M40.2049 1L40.0808 79.744" stroke="#3C3C3B" stroke-width="0.5" stroke-miterlimit="10" stroke-linecap="round"/>
</svg>
